<mxfile host="app.diagrams.net" modified="2022-01-09T18:11:13.020Z" agent="5.0 (Windows)" etag="BU1h61fbDCJbZw6di3WZ" version="16.2.4" type="github" pages="5">
  <diagram id="f2uDT9a_xL-skqSKy4VV" name="Page-1">
    <mxGraphModel dx="782" dy="420" grid="1" gridSize="10" guides="1" tooltips="1" connect="1" arrows="1" fold="1" page="1" pageScale="1" pageWidth="850" pageHeight="1100" math="0" shadow="0">
      <root>
        <mxCell id="0" />
        <mxCell id="1" parent="0" />
        <mxCell id="CooRP4pH_TojK-jZ-B9J-1" value="Mahasiswa" style="swimlane;" parent="1" vertex="1">
          <mxGeometry x="60" y="30" width="200" height="740" as="geometry">
            <mxRectangle x="60" y="30" width="140" height="23" as="alternateBounds" />
          </mxGeometry>
        </mxCell>
        <mxCell id="CooRP4pH_TojK-jZ-B9J-5" value="Memilih menu Diagnosa &amp;amp; Intervensi" style="rounded=1;arcSize=10;whiteSpace=wrap;html=1;align=center;" parent="CooRP4pH_TojK-jZ-B9J-1" vertex="1">
          <mxGeometry x="40" y="87" width="100" height="40" as="geometry" />
        </mxCell>
        <mxCell id="CooRP4pH_TojK-jZ-B9J-23" value="Memilih pilihan yang ingin di diagnosa" style="rounded=1;whiteSpace=wrap;html=1;" parent="CooRP4pH_TojK-jZ-B9J-1" vertex="1">
          <mxGeometry x="30" y="195" width="120" height="50" as="geometry" />
        </mxCell>
        <mxCell id="CooRP4pH_TojK-jZ-B9J-33" value="Memilih pilihan Gejala" style="rounded=1;whiteSpace=wrap;html=1;" parent="CooRP4pH_TojK-jZ-B9J-1" vertex="1">
          <mxGeometry x="40" y="357" width="120" height="30" as="geometry" />
        </mxCell>
        <mxCell id="CooRP4pH_TojK-jZ-B9J-40" value="Mengklik Pilihan dari hasil diagnosa" style="rounded=1;whiteSpace=wrap;html=1;" parent="CooRP4pH_TojK-jZ-B9J-1" vertex="1">
          <mxGeometry x="40" y="463" width="120" height="40" as="geometry" />
        </mxCell>
        <mxCell id="CooRP4pH_TojK-jZ-B9J-50" style="edgeStyle=orthogonalEdgeStyle;rounded=0;orthogonalLoop=1;jettySize=auto;html=1;exitX=0.5;exitY=1;exitDx=0;exitDy=0;entryX=0.5;entryY=0;entryDx=0;entryDy=0;" parent="CooRP4pH_TojK-jZ-B9J-1" source="CooRP4pH_TojK-jZ-B9J-45" target="CooRP4pH_TojK-jZ-B9J-46" edge="1">
          <mxGeometry relative="1" as="geometry" />
        </mxCell>
        <mxCell id="CooRP4pH_TojK-jZ-B9J-45" value="Memilih yang sesuai dengan penyakit" style="rounded=1;whiteSpace=wrap;html=1;" parent="CooRP4pH_TojK-jZ-B9J-1" vertex="1">
          <mxGeometry x="41" y="535" width="120" height="40" as="geometry" />
        </mxCell>
        <mxCell id="CooRP4pH_TojK-jZ-B9J-46" value="Mengklik Tombol Simpan Riwayat" style="rounded=1;whiteSpace=wrap;html=1;" parent="CooRP4pH_TojK-jZ-B9J-1" vertex="1">
          <mxGeometry x="40" y="600" width="120" height="40" as="geometry" />
        </mxCell>
        <mxCell id="CooRP4pH_TojK-jZ-B9J-6" value="Sistem" style="swimlane;" parent="1" vertex="1">
          <mxGeometry x="260" y="30" width="200" height="740" as="geometry" />
        </mxCell>
        <mxCell id="CooRP4pH_TojK-jZ-B9J-7" value="Menampilkan Halaman Utama" style="rounded=1;arcSize=10;whiteSpace=wrap;html=1;align=center;" parent="CooRP4pH_TojK-jZ-B9J-6" vertex="1">
          <mxGeometry x="50" y="87" width="100" height="40" as="geometry" />
        </mxCell>
        <mxCell id="CooRP4pH_TojK-jZ-B9J-8" value="Menampilkan Halaman Diagnosa &amp;amp; Intervensi" style="rounded=1;arcSize=10;whiteSpace=wrap;html=1;align=center;" parent="CooRP4pH_TojK-jZ-B9J-6" vertex="1">
          <mxGeometry x="50" y="190" width="100" height="60" as="geometry" />
        </mxCell>
        <mxCell id="CooRP4pH_TojK-jZ-B9J-2" value="" style="ellipse;html=1;shape=startState;fillColor=#000000;strokeColor=#ff0000;" parent="CooRP4pH_TojK-jZ-B9J-6" vertex="1">
          <mxGeometry x="85" y="30" width="30" height="30" as="geometry" />
        </mxCell>
        <mxCell id="CooRP4pH_TojK-jZ-B9J-3" value="" style="edgeStyle=orthogonalEdgeStyle;html=1;verticalAlign=bottom;endArrow=open;endSize=8;strokeColor=#ff0000;rounded=0;entryX=0.5;entryY=0;entryDx=0;entryDy=0;" parent="CooRP4pH_TojK-jZ-B9J-6" source="CooRP4pH_TojK-jZ-B9J-2" target="CooRP4pH_TojK-jZ-B9J-7" edge="1">
          <mxGeometry relative="1" as="geometry">
            <mxPoint x="-105" y="120" as="targetPoint" />
          </mxGeometry>
        </mxCell>
        <mxCell id="CooRP4pH_TojK-jZ-B9J-32" value="Menampilkan Laman isian Diagnosa" style="rounded=1;whiteSpace=wrap;html=1;" parent="CooRP4pH_TojK-jZ-B9J-6" vertex="1">
          <mxGeometry x="40" y="357" width="120" height="30" as="geometry" />
        </mxCell>
        <mxCell id="CooRP4pH_TojK-jZ-B9J-39" value="Menampilkan Hasil Diagnosa" style="rounded=1;whiteSpace=wrap;html=1;" parent="CooRP4pH_TojK-jZ-B9J-6" vertex="1">
          <mxGeometry x="40" y="463" width="120" height="40" as="geometry" />
        </mxCell>
        <mxCell id="CooRP4pH_TojK-jZ-B9J-44" value="Menampilkan Pilihan di Menu Intervensi" style="rounded=1;whiteSpace=wrap;html=1;" parent="CooRP4pH_TojK-jZ-B9J-6" vertex="1">
          <mxGeometry x="40" y="535" width="120" height="40" as="geometry" />
        </mxCell>
        <mxCell id="CooRP4pH_TojK-jZ-B9J-12" value="Database" style="swimlane;" parent="1" vertex="1">
          <mxGeometry x="460" y="30" width="200" height="740" as="geometry" />
        </mxCell>
        <mxCell id="CooRP4pH_TojK-jZ-B9J-14" value="Mengambil Data" style="rounded=1;arcSize=10;whiteSpace=wrap;html=1;align=center;" parent="CooRP4pH_TojK-jZ-B9J-12" vertex="1">
          <mxGeometry x="27" y="131" width="100" height="31" as="geometry" />
        </mxCell>
        <mxCell id="CooRP4pH_TojK-jZ-B9J-31" style="edgeStyle=orthogonalEdgeStyle;rounded=0;orthogonalLoop=1;jettySize=auto;html=1;exitX=0.5;exitY=1;exitDx=0;exitDy=0;entryX=0.5;entryY=0;entryDx=0;entryDy=0;" parent="CooRP4pH_TojK-jZ-B9J-12" source="CooRP4pH_TojK-jZ-B9J-27" target="CooRP4pH_TojK-jZ-B9J-30" edge="1">
          <mxGeometry relative="1" as="geometry" />
        </mxCell>
        <mxCell id="CooRP4pH_TojK-jZ-B9J-27" value="Mengambil data" style="rounded=1;whiteSpace=wrap;html=1;" parent="CooRP4pH_TojK-jZ-B9J-12" vertex="1">
          <mxGeometry x="40" y="268" width="120" height="28" as="geometry" />
        </mxCell>
        <mxCell id="CooRP4pH_TojK-jZ-B9J-30" value="" style="rhombus;whiteSpace=wrap;html=1;" parent="CooRP4pH_TojK-jZ-B9J-12" vertex="1">
          <mxGeometry x="80" y="320" width="40" height="30" as="geometry" />
        </mxCell>
        <mxCell id="CooRP4pH_TojK-jZ-B9J-36" value="Menyimpan Data dan Mengambil Data" style="rounded=1;whiteSpace=wrap;html=1;" parent="CooRP4pH_TojK-jZ-B9J-12" vertex="1">
          <mxGeometry x="40" y="420" width="120" height="40" as="geometry" />
        </mxCell>
        <mxCell id="CooRP4pH_TojK-jZ-B9J-43" value="Mengambil Data" style="rounded=1;whiteSpace=wrap;html=1;" parent="CooRP4pH_TojK-jZ-B9J-12" vertex="1">
          <mxGeometry x="40" y="540" width="120" height="30" as="geometry" />
        </mxCell>
        <mxCell id="CooRP4pH_TojK-jZ-B9J-53" style="edgeStyle=orthogonalEdgeStyle;rounded=0;orthogonalLoop=1;jettySize=auto;html=1;exitX=0.5;exitY=1;exitDx=0;exitDy=0;entryX=0.5;entryY=0;entryDx=0;entryDy=0;" parent="CooRP4pH_TojK-jZ-B9J-12" source="CooRP4pH_TojK-jZ-B9J-51" target="CooRP4pH_TojK-jZ-B9J-10" edge="1">
          <mxGeometry relative="1" as="geometry" />
        </mxCell>
        <mxCell id="CooRP4pH_TojK-jZ-B9J-51" value="Menyimpan Data" style="rounded=1;whiteSpace=wrap;html=1;" parent="CooRP4pH_TojK-jZ-B9J-12" vertex="1">
          <mxGeometry x="41" y="600" width="120" height="40" as="geometry" />
        </mxCell>
        <mxCell id="CooRP4pH_TojK-jZ-B9J-10" value="" style="ellipse;html=1;shape=endState;fillColor=#000000;strokeColor=#ff0000;" parent="CooRP4pH_TojK-jZ-B9J-12" vertex="1">
          <mxGeometry x="86" y="690" width="30" height="30" as="geometry" />
        </mxCell>
        <mxCell id="CooRP4pH_TojK-jZ-B9J-56" value="&lt;div&gt;Ya&lt;/div&gt;" style="text;html=1;strokeColor=none;fillColor=none;align=center;verticalAlign=middle;whiteSpace=wrap;rounded=0;" parent="CooRP4pH_TojK-jZ-B9J-12" vertex="1">
          <mxGeometry x="100" y="340" width="30" height="30" as="geometry" />
        </mxCell>
        <mxCell id="CooRP4pH_TojK-jZ-B9J-57" value="Tidak" style="text;html=1;strokeColor=none;fillColor=none;align=center;verticalAlign=middle;whiteSpace=wrap;rounded=0;" parent="CooRP4pH_TojK-jZ-B9J-12" vertex="1">
          <mxGeometry x="127" y="310" width="40" height="30" as="geometry" />
        </mxCell>
        <mxCell id="CooRP4pH_TojK-jZ-B9J-19" value="" style="endArrow=open;endFill=1;endSize=12;html=1;rounded=0;exitX=0.43;exitY=1;exitDx=0;exitDy=0;entryX=0;entryY=0.5;entryDx=0;entryDy=0;exitPerimeter=0;" parent="1" target="CooRP4pH_TojK-jZ-B9J-14" edge="1">
          <mxGeometry width="160" relative="1" as="geometry">
            <mxPoint x="143" y="155" as="sourcePoint" />
            <mxPoint x="487" y="177" as="targetPoint" />
            <Array as="points">
              <mxPoint x="143" y="178" />
            </Array>
          </mxGeometry>
        </mxCell>
        <mxCell id="CooRP4pH_TojK-jZ-B9J-9" value="" style="endArrow=open;endFill=1;endSize=12;html=1;rounded=0;entryX=1;entryY=0.5;entryDx=0;entryDy=0;exitX=0;exitY=0.5;exitDx=0;exitDy=0;" parent="1" source="CooRP4pH_TojK-jZ-B9J-7" target="CooRP4pH_TojK-jZ-B9J-5" edge="1">
          <mxGeometry width="160" relative="1" as="geometry">
            <mxPoint x="360" y="190" as="sourcePoint" />
            <mxPoint x="520" y="190" as="targetPoint" />
            <Array as="points">
              <mxPoint x="240" y="137" />
            </Array>
          </mxGeometry>
        </mxCell>
        <mxCell id="CooRP4pH_TojK-jZ-B9J-22" value="" style="endArrow=classic;html=1;rounded=0;exitX=0.5;exitY=1;exitDx=0;exitDy=0;entryX=1;entryY=0.5;entryDx=0;entryDy=0;" parent="1" source="CooRP4pH_TojK-jZ-B9J-14" target="CooRP4pH_TojK-jZ-B9J-8" edge="1">
          <mxGeometry width="50" height="50" relative="1" as="geometry">
            <mxPoint x="510" y="320" as="sourcePoint" />
            <mxPoint x="560" y="270" as="targetPoint" />
            <Array as="points">
              <mxPoint x="537" y="250" />
            </Array>
          </mxGeometry>
        </mxCell>
        <mxCell id="CooRP4pH_TojK-jZ-B9J-25" style="edgeStyle=orthogonalEdgeStyle;rounded=0;orthogonalLoop=1;jettySize=auto;html=1;exitX=0;exitY=0.5;exitDx=0;exitDy=0;" parent="1" source="CooRP4pH_TojK-jZ-B9J-8" target="CooRP4pH_TojK-jZ-B9J-23" edge="1">
          <mxGeometry relative="1" as="geometry" />
        </mxCell>
        <mxCell id="CooRP4pH_TojK-jZ-B9J-29" style="edgeStyle=orthogonalEdgeStyle;rounded=0;orthogonalLoop=1;jettySize=auto;html=1;exitX=0.5;exitY=1;exitDx=0;exitDy=0;entryX=0;entryY=0.5;entryDx=0;entryDy=0;" parent="1" source="CooRP4pH_TojK-jZ-B9J-23" target="CooRP4pH_TojK-jZ-B9J-27" edge="1">
          <mxGeometry relative="1" as="geometry" />
        </mxCell>
        <mxCell id="CooRP4pH_TojK-jZ-B9J-34" style="edgeStyle=orthogonalEdgeStyle;rounded=0;orthogonalLoop=1;jettySize=auto;html=1;exitX=0.5;exitY=1;exitDx=0;exitDy=0;entryX=1;entryY=0.5;entryDx=0;entryDy=0;" parent="1" source="CooRP4pH_TojK-jZ-B9J-30" target="CooRP4pH_TojK-jZ-B9J-32" edge="1">
          <mxGeometry relative="1" as="geometry">
            <Array as="points">
              <mxPoint x="560" y="402" />
            </Array>
          </mxGeometry>
        </mxCell>
        <mxCell id="CooRP4pH_TojK-jZ-B9J-35" style="edgeStyle=orthogonalEdgeStyle;rounded=0;orthogonalLoop=1;jettySize=auto;html=1;exitX=0;exitY=0.5;exitDx=0;exitDy=0;entryX=1;entryY=0.5;entryDx=0;entryDy=0;" parent="1" source="CooRP4pH_TojK-jZ-B9J-32" target="CooRP4pH_TojK-jZ-B9J-33" edge="1">
          <mxGeometry relative="1" as="geometry" />
        </mxCell>
        <mxCell id="CooRP4pH_TojK-jZ-B9J-38" style="edgeStyle=orthogonalEdgeStyle;rounded=0;orthogonalLoop=1;jettySize=auto;html=1;exitX=0.5;exitY=1;exitDx=0;exitDy=0;entryX=0.5;entryY=0;entryDx=0;entryDy=0;" parent="1" source="CooRP4pH_TojK-jZ-B9J-33" target="CooRP4pH_TojK-jZ-B9J-36" edge="1">
          <mxGeometry relative="1" as="geometry">
            <Array as="points">
              <mxPoint x="160" y="430" />
              <mxPoint x="560" y="430" />
            </Array>
          </mxGeometry>
        </mxCell>
        <mxCell id="CooRP4pH_TojK-jZ-B9J-41" style="edgeStyle=orthogonalEdgeStyle;rounded=0;orthogonalLoop=1;jettySize=auto;html=1;exitX=0.5;exitY=1;exitDx=0;exitDy=0;entryX=1;entryY=0.5;entryDx=0;entryDy=0;" parent="1" source="CooRP4pH_TojK-jZ-B9J-36" target="CooRP4pH_TojK-jZ-B9J-39" edge="1">
          <mxGeometry relative="1" as="geometry" />
        </mxCell>
        <mxCell id="CooRP4pH_TojK-jZ-B9J-42" style="edgeStyle=orthogonalEdgeStyle;rounded=0;orthogonalLoop=1;jettySize=auto;html=1;exitX=0;exitY=0.5;exitDx=0;exitDy=0;entryX=1;entryY=0.5;entryDx=0;entryDy=0;" parent="1" source="CooRP4pH_TojK-jZ-B9J-39" target="CooRP4pH_TojK-jZ-B9J-40" edge="1">
          <mxGeometry relative="1" as="geometry" />
        </mxCell>
        <mxCell id="CooRP4pH_TojK-jZ-B9J-47" style="edgeStyle=orthogonalEdgeStyle;rounded=0;orthogonalLoop=1;jettySize=auto;html=1;exitX=0.5;exitY=1;exitDx=0;exitDy=0;entryX=0.558;entryY=0.033;entryDx=0;entryDy=0;entryPerimeter=0;" parent="1" source="CooRP4pH_TojK-jZ-B9J-40" target="CooRP4pH_TojK-jZ-B9J-43" edge="1">
          <mxGeometry relative="1" as="geometry">
            <Array as="points">
              <mxPoint x="160" y="550" />
              <mxPoint x="567" y="550" />
            </Array>
          </mxGeometry>
        </mxCell>
        <mxCell id="CooRP4pH_TojK-jZ-B9J-48" style="edgeStyle=orthogonalEdgeStyle;rounded=0;orthogonalLoop=1;jettySize=auto;html=1;exitX=0;exitY=0.5;exitDx=0;exitDy=0;" parent="1" source="CooRP4pH_TojK-jZ-B9J-43" target="CooRP4pH_TojK-jZ-B9J-44" edge="1">
          <mxGeometry relative="1" as="geometry" />
        </mxCell>
        <mxCell id="CooRP4pH_TojK-jZ-B9J-49" style="edgeStyle=orthogonalEdgeStyle;rounded=0;orthogonalLoop=1;jettySize=auto;html=1;exitX=0;exitY=0.5;exitDx=0;exitDy=0;" parent="1" source="CooRP4pH_TojK-jZ-B9J-44" target="CooRP4pH_TojK-jZ-B9J-45" edge="1">
          <mxGeometry relative="1" as="geometry" />
        </mxCell>
        <mxCell id="CooRP4pH_TojK-jZ-B9J-52" style="edgeStyle=orthogonalEdgeStyle;rounded=0;orthogonalLoop=1;jettySize=auto;html=1;exitX=1;exitY=0.5;exitDx=0;exitDy=0;" parent="1" source="CooRP4pH_TojK-jZ-B9J-46" target="CooRP4pH_TojK-jZ-B9J-51" edge="1">
          <mxGeometry relative="1" as="geometry" />
        </mxCell>
        <mxCell id="CooRP4pH_TojK-jZ-B9J-54" style="edgeStyle=orthogonalEdgeStyle;rounded=0;orthogonalLoop=1;jettySize=auto;html=1;exitX=1;exitY=0.5;exitDx=0;exitDy=0;entryX=0.5;entryY=1;entryDx=0;entryDy=0;" parent="1" source="CooRP4pH_TojK-jZ-B9J-30" target="CooRP4pH_TojK-jZ-B9J-8" edge="1">
          <mxGeometry relative="1" as="geometry">
            <Array as="points">
              <mxPoint x="640" y="365" />
              <mxPoint x="640" y="290" />
              <mxPoint x="360" y="290" />
            </Array>
          </mxGeometry>
        </mxCell>
      </root>
    </mxGraphModel>
  </diagram>
  <diagram id="1HE9r2aoZhQblpc0ge6W" name="Page-2">
    <mxGraphModel dx="823" dy="442" grid="1" gridSize="10" guides="1" tooltips="1" connect="1" arrows="1" fold="1" page="1" pageScale="1" pageWidth="850" pageHeight="1100" math="0" shadow="0">
      <root>
        <mxCell id="DaXFYrqNqRHY0FPXC_PA-0" />
        <mxCell id="DaXFYrqNqRHY0FPXC_PA-1" parent="DaXFYrqNqRHY0FPXC_PA-0" />
        <mxCell id="x1mNq_aiyDWXR8bFbf8F-0" value="Mahasiswa" style="swimlane;" vertex="1" parent="DaXFYrqNqRHY0FPXC_PA-1">
          <mxGeometry x="60" y="30" width="200" height="310" as="geometry">
            <mxRectangle x="60" y="30" width="140" height="23" as="alternateBounds" />
          </mxGeometry>
        </mxCell>
        <mxCell id="x1mNq_aiyDWXR8bFbf8F-6" value="Mengklik Fitur Riwayat Diagnosa" style="rounded=1;arcSize=10;whiteSpace=wrap;html=1;align=center;" vertex="1" parent="x1mNq_aiyDWXR8bFbf8F-0">
          <mxGeometry x="50" y="70" width="100" height="40" as="geometry" />
        </mxCell>
        <mxCell id="x1mNq_aiyDWXR8bFbf8F-5" value="Sistem" style="swimlane;" vertex="1" parent="DaXFYrqNqRHY0FPXC_PA-1">
          <mxGeometry x="260" y="30" width="200" height="310" as="geometry" />
        </mxCell>
        <mxCell id="x1mNq_aiyDWXR8bFbf8F-7" value="Menampilkan Halaman Riwayat Diagnosa" style="rounded=1;arcSize=10;whiteSpace=wrap;html=1;align=center;" vertex="1" parent="x1mNq_aiyDWXR8bFbf8F-5">
          <mxGeometry x="50" y="170" width="100" height="40" as="geometry" />
        </mxCell>
        <mxCell id="x1mNq_aiyDWXR8bFbf8F-9" value="" style="ellipse;html=1;shape=endState;fillColor=#000000;strokeColor=#ff0000;" vertex="1" parent="x1mNq_aiyDWXR8bFbf8F-5">
          <mxGeometry x="85" y="259" width="30" height="30" as="geometry" />
        </mxCell>
        <mxCell id="x1mNq_aiyDWXR8bFbf8F-10" value="" style="endArrow=open;endFill=1;endSize=12;html=1;rounded=0;exitX=0.5;exitY=1;exitDx=0;exitDy=0;entryX=0.5;entryY=0;entryDx=0;entryDy=0;" edge="1" parent="x1mNq_aiyDWXR8bFbf8F-5" source="x1mNq_aiyDWXR8bFbf8F-7" target="x1mNq_aiyDWXR8bFbf8F-9">
          <mxGeometry width="160" relative="1" as="geometry">
            <mxPoint x="-60" y="350" as="sourcePoint" />
            <mxPoint x="100" y="350" as="targetPoint" />
          </mxGeometry>
        </mxCell>
        <mxCell id="x1mNq_aiyDWXR8bFbf8F-1" value="" style="ellipse;html=1;shape=startState;fillColor=#000000;strokeColor=#ff0000;" vertex="1" parent="x1mNq_aiyDWXR8bFbf8F-5">
          <mxGeometry x="85" y="24" width="30" height="30" as="geometry" />
        </mxCell>
        <mxCell id="x1mNq_aiyDWXR8bFbf8F-11" value="Database" style="swimlane;" vertex="1" parent="DaXFYrqNqRHY0FPXC_PA-1">
          <mxGeometry x="460" y="30" width="200" height="310" as="geometry" />
        </mxCell>
        <mxCell id="x1mNq_aiyDWXR8bFbf8F-13" value="Mengambil Data" style="rounded=1;arcSize=10;whiteSpace=wrap;html=1;align=center;" vertex="1" parent="x1mNq_aiyDWXR8bFbf8F-11">
          <mxGeometry x="40" y="130" width="100" height="30" as="geometry" />
        </mxCell>
        <mxCell id="x1mNq_aiyDWXR8bFbf8F-17" value="" style="endArrow=open;endFill=1;endSize=12;html=1;rounded=0;exitX=0;exitY=0.5;exitDx=0;exitDy=0;entryX=1;entryY=0.5;entryDx=0;entryDy=0;" edge="1" parent="DaXFYrqNqRHY0FPXC_PA-1" source="x1mNq_aiyDWXR8bFbf8F-3" target="x1mNq_aiyDWXR8bFbf8F-6">
          <mxGeometry width="160" relative="1" as="geometry">
            <mxPoint x="205" y="139.5" as="sourcePoint" />
            <mxPoint x="160" y="120" as="targetPoint" />
            <Array as="points">
              <mxPoint x="250" y="120" />
            </Array>
          </mxGeometry>
        </mxCell>
        <mxCell id="x1mNq_aiyDWXR8bFbf8F-2" value="" style="edgeStyle=orthogonalEdgeStyle;html=1;verticalAlign=bottom;endArrow=open;endSize=8;strokeColor=#ff0000;rounded=0;entryX=0.5;entryY=0;entryDx=0;entryDy=0;" edge="1" parent="DaXFYrqNqRHY0FPXC_PA-1" source="x1mNq_aiyDWXR8bFbf8F-1" target="x1mNq_aiyDWXR8bFbf8F-3">
          <mxGeometry relative="1" as="geometry">
            <mxPoint x="155" y="150" as="targetPoint" />
          </mxGeometry>
        </mxCell>
        <mxCell id="x1mNq_aiyDWXR8bFbf8F-3" value="Menampilkan Halaman Utama" style="rounded=1;arcSize=10;whiteSpace=wrap;html=1;align=center;" vertex="1" parent="DaXFYrqNqRHY0FPXC_PA-1">
          <mxGeometry x="310" y="100" width="100" height="40" as="geometry" />
        </mxCell>
        <mxCell id="x1mNq_aiyDWXR8bFbf8F-21" style="edgeStyle=orthogonalEdgeStyle;rounded=0;orthogonalLoop=1;jettySize=auto;html=1;exitX=0.5;exitY=1;exitDx=0;exitDy=0;entryX=0;entryY=0.5;entryDx=0;entryDy=0;" edge="1" parent="DaXFYrqNqRHY0FPXC_PA-1" source="x1mNq_aiyDWXR8bFbf8F-6" target="x1mNq_aiyDWXR8bFbf8F-13">
          <mxGeometry relative="1" as="geometry" />
        </mxCell>
        <mxCell id="x1mNq_aiyDWXR8bFbf8F-22" style="edgeStyle=orthogonalEdgeStyle;rounded=0;orthogonalLoop=1;jettySize=auto;html=1;exitX=0.5;exitY=1;exitDx=0;exitDy=0;entryX=1;entryY=0.5;entryDx=0;entryDy=0;" edge="1" parent="DaXFYrqNqRHY0FPXC_PA-1" source="x1mNq_aiyDWXR8bFbf8F-13" target="x1mNq_aiyDWXR8bFbf8F-7">
          <mxGeometry relative="1" as="geometry" />
        </mxCell>
      </root>
    </mxGraphModel>
  </diagram>
  <diagram id="Y_ElmgeAQ47TgdyQnoOq" name="Page-3">
    <mxGraphModel dx="782" dy="420" grid="1" gridSize="10" guides="1" tooltips="1" connect="1" arrows="1" fold="1" page="1" pageScale="1" pageWidth="850" pageHeight="1100" math="0" shadow="0">
      <root>
        <mxCell id="QBGQmFuMOPDPxrThV8-m-0" />
        <mxCell id="QBGQmFuMOPDPxrThV8-m-1" parent="QBGQmFuMOPDPxrThV8-m-0" />
        <mxCell id="1A2CrR4sP1RPivLAQyVq-0" value="Mahasiswa / Dosen" style="swimlane;" vertex="1" parent="QBGQmFuMOPDPxrThV8-m-1">
          <mxGeometry x="60" y="30" width="200" height="310" as="geometry">
            <mxRectangle x="60" y="30" width="140" height="23" as="alternateBounds" />
          </mxGeometry>
        </mxCell>
        <mxCell id="1A2CrR4sP1RPivLAQyVq-1" value="Mengklik FItur Profil" style="rounded=1;arcSize=10;whiteSpace=wrap;html=1;align=center;" vertex="1" parent="1A2CrR4sP1RPivLAQyVq-0">
          <mxGeometry x="50" y="70" width="100" height="40" as="geometry" />
        </mxCell>
        <mxCell id="1A2CrR4sP1RPivLAQyVq-2" value="Sistem" style="swimlane;" vertex="1" parent="QBGQmFuMOPDPxrThV8-m-1">
          <mxGeometry x="260" y="30" width="200" height="310" as="geometry" />
        </mxCell>
        <mxCell id="1A2CrR4sP1RPivLAQyVq-3" value="Menampilkan Halaman Profil" style="rounded=1;arcSize=10;whiteSpace=wrap;html=1;align=center;" vertex="1" parent="1A2CrR4sP1RPivLAQyVq-2">
          <mxGeometry x="50" y="170" width="100" height="40" as="geometry" />
        </mxCell>
        <mxCell id="1A2CrR4sP1RPivLAQyVq-4" value="" style="ellipse;html=1;shape=endState;fillColor=#000000;strokeColor=#ff0000;" vertex="1" parent="1A2CrR4sP1RPivLAQyVq-2">
          <mxGeometry x="85" y="259" width="30" height="30" as="geometry" />
        </mxCell>
        <mxCell id="1A2CrR4sP1RPivLAQyVq-5" value="" style="endArrow=open;endFill=1;endSize=12;html=1;rounded=0;exitX=0.5;exitY=1;exitDx=0;exitDy=0;entryX=0.5;entryY=0;entryDx=0;entryDy=0;" edge="1" parent="1A2CrR4sP1RPivLAQyVq-2" source="1A2CrR4sP1RPivLAQyVq-3" target="1A2CrR4sP1RPivLAQyVq-4">
          <mxGeometry width="160" relative="1" as="geometry">
            <mxPoint x="-60" y="350" as="sourcePoint" />
            <mxPoint x="100" y="350" as="targetPoint" />
          </mxGeometry>
        </mxCell>
        <mxCell id="1A2CrR4sP1RPivLAQyVq-6" value="" style="ellipse;html=1;shape=startState;fillColor=#000000;strokeColor=#ff0000;" vertex="1" parent="1A2CrR4sP1RPivLAQyVq-2">
          <mxGeometry x="85" y="24" width="30" height="30" as="geometry" />
        </mxCell>
        <mxCell id="1A2CrR4sP1RPivLAQyVq-7" value="Database" style="swimlane;" vertex="1" parent="QBGQmFuMOPDPxrThV8-m-1">
          <mxGeometry x="460" y="30" width="200" height="310" as="geometry" />
        </mxCell>
        <mxCell id="1A2CrR4sP1RPivLAQyVq-8" value="Mengambil Data" style="rounded=1;arcSize=10;whiteSpace=wrap;html=1;align=center;" vertex="1" parent="1A2CrR4sP1RPivLAQyVq-7">
          <mxGeometry x="40" y="130" width="100" height="30" as="geometry" />
        </mxCell>
        <mxCell id="1A2CrR4sP1RPivLAQyVq-9" value="" style="endArrow=open;endFill=1;endSize=12;html=1;rounded=0;exitX=0;exitY=0.5;exitDx=0;exitDy=0;entryX=1;entryY=0.5;entryDx=0;entryDy=0;" edge="1" parent="QBGQmFuMOPDPxrThV8-m-1" source="1A2CrR4sP1RPivLAQyVq-11" target="1A2CrR4sP1RPivLAQyVq-1">
          <mxGeometry width="160" relative="1" as="geometry">
            <mxPoint x="205" y="139.5" as="sourcePoint" />
            <mxPoint x="160" y="120" as="targetPoint" />
            <Array as="points">
              <mxPoint x="250" y="120" />
            </Array>
          </mxGeometry>
        </mxCell>
        <mxCell id="1A2CrR4sP1RPivLAQyVq-10" value="" style="edgeStyle=orthogonalEdgeStyle;html=1;verticalAlign=bottom;endArrow=open;endSize=8;strokeColor=#ff0000;rounded=0;entryX=0.5;entryY=0;entryDx=0;entryDy=0;" edge="1" parent="QBGQmFuMOPDPxrThV8-m-1" source="1A2CrR4sP1RPivLAQyVq-6" target="1A2CrR4sP1RPivLAQyVq-11">
          <mxGeometry relative="1" as="geometry">
            <mxPoint x="155" y="150" as="targetPoint" />
          </mxGeometry>
        </mxCell>
        <mxCell id="1A2CrR4sP1RPivLAQyVq-11" value="Menampilkan Halaman Utama" style="rounded=1;arcSize=10;whiteSpace=wrap;html=1;align=center;" vertex="1" parent="QBGQmFuMOPDPxrThV8-m-1">
          <mxGeometry x="310" y="100" width="100" height="40" as="geometry" />
        </mxCell>
        <mxCell id="1A2CrR4sP1RPivLAQyVq-12" style="edgeStyle=orthogonalEdgeStyle;rounded=0;orthogonalLoop=1;jettySize=auto;html=1;exitX=0.5;exitY=1;exitDx=0;exitDy=0;entryX=0;entryY=0.5;entryDx=0;entryDy=0;" edge="1" parent="QBGQmFuMOPDPxrThV8-m-1" source="1A2CrR4sP1RPivLAQyVq-1" target="1A2CrR4sP1RPivLAQyVq-8">
          <mxGeometry relative="1" as="geometry" />
        </mxCell>
        <mxCell id="1A2CrR4sP1RPivLAQyVq-13" style="edgeStyle=orthogonalEdgeStyle;rounded=0;orthogonalLoop=1;jettySize=auto;html=1;exitX=0.5;exitY=1;exitDx=0;exitDy=0;entryX=1;entryY=0.5;entryDx=0;entryDy=0;" edge="1" parent="QBGQmFuMOPDPxrThV8-m-1" source="1A2CrR4sP1RPivLAQyVq-8" target="1A2CrR4sP1RPivLAQyVq-3">
          <mxGeometry relative="1" as="geometry" />
        </mxCell>
      </root>
    </mxGraphModel>
  </diagram>
  <diagram id="YZBEJmETqGC__-5SutcO" name="Page-4">
    <mxGraphModel dx="782" dy="420" grid="1" gridSize="10" guides="1" tooltips="1" connect="1" arrows="1" fold="1" page="1" pageScale="1" pageWidth="850" pageHeight="1100" math="0" shadow="0">
      <root>
        <mxCell id="xfb2Rh4zE52idPNhu9NR-0" />
        <mxCell id="xfb2Rh4zE52idPNhu9NR-1" parent="xfb2Rh4zE52idPNhu9NR-0" />
        <mxCell id="MXD2lh5rss2HaNmn22tP-0" value="Dosen" style="swimlane;" parent="xfb2Rh4zE52idPNhu9NR-1" vertex="1">
          <mxGeometry x="60" y="30" width="200" height="310" as="geometry">
            <mxRectangle x="60" y="30" width="140" height="23" as="alternateBounds" />
          </mxGeometry>
        </mxCell>
        <mxCell id="MXD2lh5rss2HaNmn22tP-1" value="Mengklik FItur Monitoring" style="rounded=1;arcSize=10;whiteSpace=wrap;html=1;align=center;" parent="MXD2lh5rss2HaNmn22tP-0" vertex="1">
          <mxGeometry x="50" y="70" width="100" height="40" as="geometry" />
        </mxCell>
        <mxCell id="MXD2lh5rss2HaNmn22tP-2" value="Sistem" style="swimlane;" parent="xfb2Rh4zE52idPNhu9NR-1" vertex="1">
          <mxGeometry x="260" y="30" width="200" height="310" as="geometry" />
        </mxCell>
        <mxCell id="MXD2lh5rss2HaNmn22tP-3" value="Menampilkan Halaman Monitoring" style="rounded=1;arcSize=10;whiteSpace=wrap;html=1;align=center;" parent="MXD2lh5rss2HaNmn22tP-2" vertex="1">
          <mxGeometry x="50" y="170" width="100" height="50" as="geometry" />
        </mxCell>
        <mxCell id="MXD2lh5rss2HaNmn22tP-4" value="" style="ellipse;html=1;shape=endState;fillColor=#000000;strokeColor=#ff0000;" parent="MXD2lh5rss2HaNmn22tP-2" vertex="1">
          <mxGeometry x="85" y="259" width="30" height="30" as="geometry" />
        </mxCell>
        <mxCell id="MXD2lh5rss2HaNmn22tP-5" value="" style="endArrow=open;endFill=1;endSize=12;html=1;rounded=0;exitX=0.5;exitY=1;exitDx=0;exitDy=0;entryX=0.5;entryY=0;entryDx=0;entryDy=0;" parent="MXD2lh5rss2HaNmn22tP-2" source="MXD2lh5rss2HaNmn22tP-3" target="MXD2lh5rss2HaNmn22tP-4" edge="1">
          <mxGeometry width="160" relative="1" as="geometry">
            <mxPoint x="-60" y="350" as="sourcePoint" />
            <mxPoint x="100" y="350" as="targetPoint" />
          </mxGeometry>
        </mxCell>
        <mxCell id="MXD2lh5rss2HaNmn22tP-6" value="" style="ellipse;html=1;shape=startState;fillColor=#000000;strokeColor=#ff0000;" parent="MXD2lh5rss2HaNmn22tP-2" vertex="1">
          <mxGeometry x="85" y="24" width="30" height="30" as="geometry" />
        </mxCell>
        <mxCell id="MXD2lh5rss2HaNmn22tP-7" value="Database" style="swimlane;" parent="xfb2Rh4zE52idPNhu9NR-1" vertex="1">
          <mxGeometry x="460" y="30" width="200" height="310" as="geometry" />
        </mxCell>
        <mxCell id="MXD2lh5rss2HaNmn22tP-8" value="Mengambil Data" style="rounded=1;arcSize=10;whiteSpace=wrap;html=1;align=center;" parent="MXD2lh5rss2HaNmn22tP-7" vertex="1">
          <mxGeometry x="40" y="130" width="100" height="30" as="geometry" />
        </mxCell>
        <mxCell id="MXD2lh5rss2HaNmn22tP-9" value="" style="endArrow=open;endFill=1;endSize=12;html=1;rounded=0;exitX=0;exitY=0.5;exitDx=0;exitDy=0;entryX=1;entryY=0.5;entryDx=0;entryDy=0;" parent="xfb2Rh4zE52idPNhu9NR-1" source="MXD2lh5rss2HaNmn22tP-11" target="MXD2lh5rss2HaNmn22tP-1" edge="1">
          <mxGeometry width="160" relative="1" as="geometry">
            <mxPoint x="205" y="139.5" as="sourcePoint" />
            <mxPoint x="160" y="120" as="targetPoint" />
            <Array as="points">
              <mxPoint x="250" y="120" />
            </Array>
          </mxGeometry>
        </mxCell>
        <mxCell id="MXD2lh5rss2HaNmn22tP-10" value="" style="edgeStyle=orthogonalEdgeStyle;html=1;verticalAlign=bottom;endArrow=open;endSize=8;strokeColor=#ff0000;rounded=0;entryX=0.5;entryY=0;entryDx=0;entryDy=0;" parent="xfb2Rh4zE52idPNhu9NR-1" source="MXD2lh5rss2HaNmn22tP-6" target="MXD2lh5rss2HaNmn22tP-11" edge="1">
          <mxGeometry relative="1" as="geometry">
            <mxPoint x="155" y="150" as="targetPoint" />
          </mxGeometry>
        </mxCell>
        <mxCell id="MXD2lh5rss2HaNmn22tP-11" value="Menampilkan Halaman Utama" style="rounded=1;arcSize=10;whiteSpace=wrap;html=1;align=center;" parent="xfb2Rh4zE52idPNhu9NR-1" vertex="1">
          <mxGeometry x="310" y="100" width="100" height="40" as="geometry" />
        </mxCell>
        <mxCell id="MXD2lh5rss2HaNmn22tP-12" style="edgeStyle=orthogonalEdgeStyle;rounded=0;orthogonalLoop=1;jettySize=auto;html=1;exitX=0.5;exitY=1;exitDx=0;exitDy=0;entryX=0;entryY=0.5;entryDx=0;entryDy=0;" parent="xfb2Rh4zE52idPNhu9NR-1" source="MXD2lh5rss2HaNmn22tP-1" target="MXD2lh5rss2HaNmn22tP-8" edge="1">
          <mxGeometry relative="1" as="geometry" />
        </mxCell>
        <mxCell id="MXD2lh5rss2HaNmn22tP-13" style="edgeStyle=orthogonalEdgeStyle;rounded=0;orthogonalLoop=1;jettySize=auto;html=1;exitX=0.5;exitY=1;exitDx=0;exitDy=0;entryX=1;entryY=0.5;entryDx=0;entryDy=0;" parent="xfb2Rh4zE52idPNhu9NR-1" source="MXD2lh5rss2HaNmn22tP-8" target="MXD2lh5rss2HaNmn22tP-3" edge="1">
          <mxGeometry relative="1" as="geometry" />
        </mxCell>
      </root>
    </mxGraphModel>
  </diagram>
  <diagram id="ZCY-jUCQd4RoQN7HmHlu" name="Page-5">
    <mxGraphModel dx="782" dy="420" grid="1" gridSize="10" guides="1" tooltips="1" connect="1" arrows="1" fold="1" page="1" pageScale="1" pageWidth="850" pageHeight="1100" math="0" shadow="0">
      <root>
        <mxCell id="y-lFtRXpAIB3BwuuqSHm-0" />
        <mxCell id="y-lFtRXpAIB3BwuuqSHm-1" parent="y-lFtRXpAIB3BwuuqSHm-0" />
        <mxCell id="y-lFtRXpAIB3BwuuqSHm-2" value="Akun" style="swimlane;" vertex="1" parent="y-lFtRXpAIB3BwuuqSHm-1">
          <mxGeometry x="40" y="40" width="200" height="200" as="geometry" />
        </mxCell>
        <mxCell id="y-lFtRXpAIB3BwuuqSHm-3" value="Diagnosa" style="swimlane;" vertex="1" parent="y-lFtRXpAIB3BwuuqSHm-1">
          <mxGeometry x="40" y="300" width="200" height="200" as="geometry" />
        </mxCell>
        <mxCell id="y-lFtRXpAIB3BwuuqSHm-4" value="Gejala" style="swimlane;startSize=23;" vertex="1" parent="y-lFtRXpAIB3BwuuqSHm-1">
          <mxGeometry x="300" y="40" width="200" height="200" as="geometry" />
        </mxCell>
        <mxCell id="y-lFtRXpAIB3BwuuqSHm-5" value="Intervensi" style="swimlane;" vertex="1" parent="y-lFtRXpAIB3BwuuqSHm-1">
          <mxGeometry x="260" y="300" width="200" height="200" as="geometry" />
        </mxCell>
        <mxCell id="y-lFtRXpAIB3BwuuqSHm-6" value="Menu" style="swimlane;" vertex="1" parent="y-lFtRXpAIB3BwuuqSHm-1">
          <mxGeometry x="580" y="40" width="200" height="200" as="geometry" />
        </mxCell>
        <mxCell id="y-lFtRXpAIB3BwuuqSHm-7" value="Uraian" style="swimlane;" vertex="1" parent="y-lFtRXpAIB3BwuuqSHm-1">
          <mxGeometry x="490" y="300" width="200" height="200" as="geometry" />
        </mxCell>
        <mxCell id="y-lFtRXpAIB3BwuuqSHm-8" value="Vertical Container" style="swimlane;" vertex="1" parent="y-lFtRXpAIB3BwuuqSHm-1">
          <mxGeometry x="710" y="300" width="200" height="200" as="geometry" />
        </mxCell>
      </root>
    </mxGraphModel>
  </diagram>
</mxfile>
